<svg width="93px" height="30px" viewBox="0 0 93 30" version="1.1" xmlns="http://www.w3.org/2000/svg" xmlns:xlink="http://www.w3.org/1999/xlink">
    <!-- Generator: Sketch 47 (45396) - http://www.bohemiancoding.com/sketch -->
    <desc>Created with Sketch.</desc>
    <defs></defs>
    <g id="Page-1" stroke="none" stroke-width="1" fill="none" fill-rule="evenodd">
        <g id="Home---Feature-Point-Trigger" transform="translate(-250.000000, -15.000000)" fill="#FFFFFF">
            <g id="Brand/Logo" transform="translate(250.000000, 15.000000)">
                <path d="M28.8382808,9.40165251 L28.8382808,14.5317683 L31.3083979,14.5317683 C32.0490392,14.5317683 32.649891,14.2915367 33.1108375,13.81061 C33.5717839,13.3301467 33.8022572,12.7154363 33.8022572,11.9667104 C33.8022572,11.4861313 33.6997603,11.05061 33.4948823,10.6604942 C33.2900044,10.2704942 32.9986121,9.96319691 32.620358,9.73848649 C32.2422198,9.51400772 31.8047839,9.40165251 31.3083979,9.40165251 L28.8382808,9.40165251 Z M25.2097752,21.706749 L25.2097752,8.10134363 C25.2097752,7.51825483 25.3750442,7.0573668 25.7055822,6.71833205 C26.036236,6.37964479 26.5005411,6.2100695 27.0989608,6.2100695 L31.3734863,6.2100695 C32.5306009,6.2100695 33.5873032,6.45227027 34.5437092,6.93632432 C35.5001152,7.42049421 36.2439994,8.10157529 36.7754776,8.97933591 C37.3067242,9.85698069 37.5725212,10.8586795 37.5725212,11.9844324 C37.5725212,12.8584865 37.4131588,13.6514595 37.094434,14.3639305 C36.7755934,15.0764015 36.3430218,15.6805714 35.7961401,16.1764402 C35.2491426,16.6724247 34.6060181,17.0540849 33.8663032,17.3217683 C33.1264726,17.5895676 32.3476121,17.7233514 31.5292584,17.7233514 L28.8382808,17.7233514 L28.8382808,21.7029266 C28.8382808,22.3032741 28.6708113,22.7671737 28.3358724,23.0948571 C28.0009334,23.4225405 27.565698,23.5863243 27.0299346,23.5863243 C26.5019309,23.5863243 26.0665797,23.4190656 25.7238811,23.0839691 C25.3810666,22.7489884 25.2097752,22.2901853 25.2097752,21.706749 L25.2097752,21.706749 Z" id="Fill-1"></path>
                <path d="M39.6276822,21.6477452 L39.6276822,6.74203089 C39.6276822,6.16693436 39.7872762,5.69990734 40.1063484,5.3412973 C40.4255365,4.98280309 40.8451367,4.80349807 41.3651492,4.80349807 C41.7037943,4.80349807 42.0051467,4.88434749 42.2693223,5.04581467 C42.5331504,5.20728185 42.7399973,5.43581467 42.8897469,5.73141313 C43.0393808,6.02689575 43.1143136,6.36384556 43.1143136,6.74203089 L43.1143136,11.4820309 L43.1616822,11.4820309 C43.4925676,11.0723398 43.9514294,10.7689807 44.5384991,10.5719537 C45.1254531,10.3750425 45.7222513,10.2763552 46.3291255,10.2763552 C47.2430271,10.2763552 48.0624232,10.4636525 48.7875452,10.8378996 C49.5123198,11.2121467 50.0795851,11.7520309 50.4894568,12.4572046 C50.8989811,13.16261 51.1040907,13.9998301 51.1040907,14.9692124 L51.1040907,21.6477452 C51.1040907,22.0260463 51.0290421,22.3628803 50.8794082,22.6584788 C50.7296585,22.9538456 50.5208428,23.18261 50.253077,23.3440772 C49.9850795,23.5054286 49.6858117,23.586278 49.3548105,23.586278 C48.834798,23.586278 48.4151978,23.4070888 48.0960097,23.0484788 C47.7769375,22.6899846 47.6173435,22.2230734 47.6173435,21.6477452 L47.6173435,15.5719923 C47.6173435,14.7918764 47.4064431,14.1989421 46.9849898,13.7929575 C46.5635365,13.3872046 46.0138752,13.1842703 45.3363534,13.1842703 C44.8792289,13.1842703 44.4812862,13.288749 44.1425253,13.4974749 C43.8037644,13.7063166 43.5475801,13.9880154 43.3743198,14.3426873 C43.2009437,14.6972432 43.1143136,15.1070502 43.1143136,15.5719923 L43.1143136,21.6477452 C43.1143136,22.0260463 43.0393808,22.3628803 42.8897469,22.6584788 C42.7399973,22.9538456 42.5310658,23.18261 42.2634157,23.3440772 C41.9953024,23.5054286 41.6960346,23.586278 41.3651492,23.586278 C40.8451367,23.586278 40.4255365,23.4070888 40.1063484,23.0484788 C39.7872762,22.6899846 39.6276822,22.2230734 39.6276822,21.6477452" id="Fill-3"></path>
                <path d="M60.0029862,13.4679151 C59.4198542,13.4679151 58.9175615,13.6396911 58.4961082,13.9830116 C58.0745391,14.326332 57.7613735,14.7742471 57.5564955,15.3268726 C57.3515017,15.8794981 57.2492365,16.4478764 57.2492365,17.0318919 C57.2492365,17.6240154 57.3535864,18.1903089 57.5624021,18.7310039 C57.771102,19.2718147 58.0824146,19.71 58.4961082,20.0453282 C58.9098019,20.3807722 59.4120945,20.5484942 60.0029862,20.5484942 C60.6017533,20.5484942 61.1080995,20.3807722 61.5217932,20.0453282 C61.9354868,19.71 62.2466836,19.2718147 62.4554993,18.7310039 C62.6641991,18.1903089 62.7687807,17.6240154 62.7687807,17.0318919 C62.7687807,16.4478764 62.666168,15.8813514 62.4614059,15.3328958 C62.2564121,14.7842085 61.9453311,14.3361776 61.5276998,13.9889189 C61.1100684,13.6416602 60.6017533,13.4679151 60.0029862,13.4679151 M60.0029862,10.276332 C60.9012527,10.276332 61.7383685,10.4595753 62.5146811,10.8259459 C63.2906462,11.1924324 63.9565864,11.6909653 64.5120385,12.3214286 C65.0674905,12.9518919 65.4969351,13.6687645 65.8003722,14.4726255 C66.1035777,15.2763707 66.2552963,16.1274903 66.2552963,17.0258687 C66.2552963,17.9322394 66.1035777,18.7930888 65.8003722,19.6087645 C65.4969351,20.4243243 65.0752502,21.1376062 64.5356649,21.7481467 C63.9959638,22.3590347 63.3340771,22.8435521 62.5500049,23.2021622 C61.7659326,23.5606564 60.9170036,23.7399614 60.0029862,23.7399614 C58.7975765,23.7399614 57.7179426,23.4385714 56.7646636,22.8356757 C55.8111531,22.2328958 55.0724806,21.4172201 54.5485304,20.3888803 C54.0244644,19.3604247 53.7624893,18.2395367 53.7624893,17.0258687 C53.7624893,16.159112 53.9142078,15.3178378 54.217645,14.502278 C54.5208504,13.6866023 54.9522639,12.9595367 55.5117695,12.3214286 C56.0711593,11.682973 56.7369837,11.1827027 57.5092427,10.8201544 C58.2813859,10.457722 59.1125951,10.276332 60.0029862,10.276332" id="Fill-5"></path>
                <path d="M71.5147763,22.4278958 L67.6617041,12.8177027 C67.5513318,12.5026448 67.4963193,12.2031081 67.4963193,11.9193243 C67.4963193,11.5018726 67.6715484,11.1472008 68.0222384,10.8556564 C68.3726966,10.564112 68.7450441,10.418166 69.1391649,10.418166 C69.5566804,10.418166 69.9172147,10.526583 70.220536,10.7433012 C70.5237415,10.9601351 70.7465709,11.2654633 70.8884451,11.6594015 L73.2757539,18.2197876 L75.8406082,11.6594015 C75.9981176,11.2654633 76.2246531,10.9601351 76.5202147,10.7433012 C76.8156605,10.526583 77.1721412,10.418166 77.5897726,10.418166 C77.9836618,10.418166 78.3560092,10.5621429 78.7066991,10.8496332 C79.0571574,11.1373552 79.2326182,11.4938803 79.2326182,11.9193243 C79.2326182,12.2662355 79.1773741,12.5656564 79.0672334,12.8177027 L73.2285011,27.3452317 C72.865998,28.2593629 72.3184214,28.7164286 71.5856555,28.7164286 C71.0341412,28.7164286 70.5928834,28.5666602 70.261998,28.2672394 C69.9309968,27.9677027 69.7654961,27.6170849 69.7654961,27.2152703 C69.7654961,26.9392471 69.8403131,26.6005598 69.9901786,26.1986293 L71.5147763,22.4278958 Z" id="Fill-7"></path>
                <path d="M86.7163733,13.4679151 C86.1332413,13.4679151 85.6309487,13.6396911 85.2094954,13.9830116 C84.7879263,14.326332 84.4747606,14.7742471 84.2698827,15.3268726 C84.0648889,15.8794981 83.9626237,16.4478764 83.9626237,17.0318919 C83.9626237,17.6240154 84.0669736,18.1903089 84.2757893,18.7310039 C84.4844892,19.2718147 84.7958017,19.71 85.2094954,20.0453282 C85.623189,20.3807722 86.1254817,20.5484942 86.7163733,20.5484942 C87.3151405,20.5484942 87.8214867,20.3807722 88.2351803,20.0453282 C88.648874,19.71 88.9600707,19.2718147 89.1688864,18.7310039 C89.3775863,18.1903089 89.4821679,17.6240154 89.4821679,17.0318919 C89.4821679,16.4478764 89.3795552,15.8813514 89.174793,15.3328958 C88.9697993,14.7842085 88.6587183,14.3361776 88.2410869,13.9889189 C87.8234555,13.6416602 87.3151405,13.4679151 86.7163733,13.4679151 M86.7163733,10.276332 C87.6146399,10.276332 88.4517557,10.4595753 89.2280682,10.8259459 C90.0040334,11.1924324 90.6699736,11.6909653 91.2254257,12.3214286 C91.7808777,12.9518919 92.2103223,13.6687645 92.5137594,14.4726255 C92.8169649,15.2763707 92.9686834,16.1274903 92.9686834,17.0258687 C92.9686834,17.9322394 92.8169649,18.7930888 92.5137594,19.6087645 C92.2103223,20.4243243 91.7886374,21.1376062 91.2490521,21.7481467 C90.7093509,22.3590347 90.0474643,22.8435521 89.263392,23.2021622 C88.4793198,23.5606564 87.6303908,23.7399614 86.7163733,23.7399614 C85.5109636,23.7399614 84.4313298,23.4385714 83.4780508,22.8356757 C82.5245402,22.2328958 81.7858677,21.4172201 81.2619176,20.3888803 C80.7378516,19.3604247 80.4758765,18.2395367 80.4758765,17.0258687 C80.4758765,16.159112 80.627595,15.3178378 80.9310321,14.502278 C81.2342376,13.6866023 81.6656511,12.9595367 82.2251567,12.3214286 C82.7845465,11.682973 83.4503709,11.1827027 84.2226299,10.8201544 C84.9947731,10.457722 85.8259823,10.276332 86.7163733,10.276332" id="Fill-9"></path>
                <path d="M9.67875205,29.8918147 C8.65540461,29.8918147 7.825701,29.0621236 7.825701,28.0385328 L7.825701,1.85328185 C7.825701,0.82969112 8.65540461,-5.68434189e-14 9.67875205,-5.68434189e-14 C10.7020995,-5.68434189e-14 11.5318031,0.82969112 11.5318031,1.85328185 L11.5318031,28.0385328 C11.5318031,29.0621236 10.7020995,29.8918147 9.67875205,29.8918147" id="Fill-11"></path>
                <path d="M17.0094684,25.5175367 C15.9861209,25.5175367 15.1564173,24.6878456 15.1564173,23.6642548 L15.1564173,6.22753668 C15.1564173,5.20394595 15.9861209,4.37425483 17.0094684,4.37425483 C18.0328158,4.37425483 18.8625194,5.20394595 18.8625194,6.22753668 L18.8625194,23.6642548 C18.8625194,24.6878456 18.0328158,25.5175367 17.0094684,25.5175367" id="Fill-13"></path>
                <path d="M1.85305106,25.5175367 C0.829703611,25.5175367 0,24.6878456 0,23.6642548 L0,6.22753668 C0,5.20394595 0.829703611,4.37425483 1.85305106,4.37425483 C2.87639851,4.37425483 3.70610212,5.20394595 3.70610212,6.22753668 L3.70610212,23.6642548 C3.70610212,24.6878456 2.87639851,25.5175367 1.85305106,25.5175367" id="Fill-15"></path>
            </g>
        </g>
    </g>
</svg>